<svg xmlns="http://www.w3.org/2000/svg" width="187.5" viewBox="0 0 187.5 52.5" height="52.5" version="1.0"><defs><clipPath id="a"><path d="M 126.574219 28 L 134 28 L 134 40.753906 L 126.574219 40.753906 Z M 126.574219 28"/></clipPath><clipPath id="b"><path d="M 128 40 L 129 40 L 129 40.753906 L 128 40.753906 Z M 128 40"/></clipPath><clipPath id="c"><path d="M 128 11.703125 L 133 11.703125 L 133 22 L 128 22 Z M 128 11.703125"/></clipPath></defs><g fill="#FFF"><g><g><path d="M 17.921875 -5.25 L 17.734375 -5.34375 C 16.828125 -5.582031 15.867188 -5.734375 14.859375 -5.796875 C 13.847656 -5.867188 12.816406 -6.007812 11.765625 -6.21875 C 12.796875 -6.007812 13.804688 -5.84375 14.796875 -5.71875 C 15.785156 -5.601562 16.765625 -5.382812 17.734375 -5.0625 C 17.429688 -4.863281 17.109375 -4.765625 16.765625 -4.765625 C 16.359375 -4.804688 15.953125 -4.867188 15.546875 -4.953125 C 15.148438 -5.046875 14.726562 -5.113281 14.28125 -5.15625 C 14.28125 -5.28125 14.3125 -5.378906 14.375 -5.453125 C 13.75 -5.453125 13.128906 -5.515625 12.515625 -5.640625 C 11.910156 -5.765625 11.316406 -5.90625 10.734375 -6.0625 C 10.148438 -6.226562 9.582031 -6.378906 9.03125 -6.515625 C 8.488281 -6.660156 7.984375 -6.734375 7.515625 -6.734375 C 7.515625 -6.671875 7.503906 -6.640625 7.484375 -6.640625 C 8.035156 -6.535156 8.554688 -6.382812 9.046875 -6.1875 C 9.546875 -6 10.109375 -5.847656 10.734375 -5.734375 C 11.335938 -5.585938 11.921875 -5.476562 12.484375 -5.40625 C 13.054688 -5.34375 13.625 -5.257812 14.1875 -5.15625 C 13.28125 -5.238281 12.359375 -5.363281 11.421875 -5.53125 C 10.492188 -5.707031 9.578125 -5.90625 8.671875 -6.125 L 7.15625 -6.515625 C 6.613281 -5.140625 6.066406 -3.789062 5.515625 -2.46875 C 4.972656 -1.144531 4.445312 0.191406 3.9375 1.546875 C 3.894531 1.460938 3.820312 1.414062 3.71875 1.40625 C 3.625 1.394531 3.523438 1.390625 3.421875 1.390625 C 3.328125 1.390625 3.238281 1.359375 3.15625 1.296875 C 3.070312 1.242188 3.03125 1.132812 3.03125 0.96875 C 3.03125 0.789062 3.070312 0.546875 3.15625 0.234375 C 3.238281 -0.0664062 3.398438 -0.476562 3.640625 -1 C 3.597656 -1.039062 3.523438 -1.066406 3.421875 -1.078125 C 3.328125 -1.085938 3.257812 -1.09375 3.21875 -1.09375 C 2.789062 -0.1875 2.378906 0.503906 1.984375 0.984375 C 1.585938 1.460938 1.269531 1.703125 1.03125 1.703125 C 0.769531 1.703125 0.640625 1.457031 0.640625 0.96875 C 0.640625 0.5625 0.710938 0.0390625 0.859375 -0.59375 C 1.015625 -1.226562 1.203125 -1.910156 1.421875 -2.640625 C 1.648438 -3.367188 1.90625 -4.125 2.1875 -4.90625 C 2.46875 -5.695312 2.738281 -6.46875 3 -7.21875 C 2.757812 -7.375 2.503906 -7.484375 2.234375 -7.546875 C 1.972656 -7.609375 1.679688 -7.660156 1.359375 -7.703125 C 1.421875 -7.785156 1.453125 -7.890625 1.453125 -8.015625 C 1.453125 -8.148438 1.460938 -8.28125 1.484375 -8.40625 C 1.503906 -8.539062 1.546875 -8.648438 1.609375 -8.734375 C 1.671875 -8.816406 1.789062 -8.859375 1.96875 -8.859375 C 2.007812 -8.859375 2.140625 -8.835938 2.359375 -8.796875 L 2.359375 -9.09375 C 2.015625 -9.257812 1.75 -9.460938 1.5625 -9.703125 C 1.382812 -9.941406 1.296875 -10.175781 1.296875 -10.40625 C 1.296875 -10.925781 1.785156 -11.1875 2.765625 -11.1875 C 3.046875 -11.1875 3.332031 -11.171875 3.625 -11.140625 C 3.914062 -11.109375 4.210938 -11.070312 4.515625 -11.03125 L 6 -14.40625 C 6.320312 -15.132812 6.671875 -15.882812 7.046875 -16.65625 C 7.421875 -17.4375 7.863281 -18.203125 8.375 -18.953125 C 8.894531 -19.703125 9.484375 -20.414062 10.140625 -21.09375 C 10.796875 -21.769531 11.550781 -22.378906 12.40625 -22.921875 L 12.890625 -23.109375 C 13.492188 -22.960938 13.984375 -22.835938 14.359375 -22.734375 C 14.734375 -22.640625 15.039062 -22.570312 15.28125 -22.53125 C 15.488281 -22.445312 15.660156 -22.394531 15.796875 -22.375 L 15.765625 -22.375 L 15.796875 -22.28125 C 15.796875 -22.25 15.785156 -22.222656 15.765625 -22.203125 L 16.15625 -21.53125 C 17.550781 -19.1875 18.726562 -16.753906 19.6875 -14.234375 C 20.65625 -11.722656 21.484375 -9.253906 22.171875 -6.828125 C 22.347656 -6.296875 22.554688 -5.722656 22.796875 -5.109375 C 23.046875 -4.492188 23.285156 -3.910156 23.515625 -3.359375 C 23.742188 -2.816406 23.929688 -2.320312 24.078125 -1.875 C 24.234375 -1.4375 24.3125 -1.125 24.3125 -0.9375 C 24.3125 -0.78125 24.273438 -0.6875 24.203125 -0.65625 C 24.140625 -0.625 24.054688 -0.609375 23.953125 -0.609375 C 23.390625 -2.003906 22.863281 -3.378906 22.375 -4.734375 C 21.875 -6.066406 21.390625 -7.410156 20.921875 -8.765625 C 21.347656 -7.410156 21.800781 -6.066406 22.28125 -4.734375 C 22.769531 -3.378906 23.257812 -2.003906 23.75 -0.609375 L 23.53125 -0.609375 C 23.40625 -0.609375 23.316406 -0.546875 23.265625 -0.421875 C 23.316406 -0.378906 23.375 -0.265625 23.4375 -0.078125 C 23.5 0.0976562 23.5625 0.289062 23.625 0.5 C 23.6875 0.707031 23.738281 0.914062 23.78125 1.125 C 23.832031 1.34375 23.859375 1.503906 23.859375 1.609375 C 23.859375 2.085938 23.71875 2.328125 23.4375 2.328125 C 23.28125 2.328125 23.160156 2.289062 23.078125 2.21875 C 22.992188 2.15625 22.898438 2.070312 22.796875 1.96875 L 22.46875 1.640625 C 22.34375 1.515625 22.179688 1.382812 21.984375 1.25 L 18.890625 -7.640625 C 19.335938 -6.242188 19.78125 -4.847656 20.21875 -3.453125 C 20.664062 -2.054688 21.125 -0.679688 21.59375 0.671875 C 21.25 0.265625 20.929688 -0.222656 20.640625 -0.796875 C 20.359375 -1.378906 20.09375 -1.992188 19.84375 -2.640625 C 19.59375 -3.285156 19.359375 -3.945312 19.140625 -4.625 C 18.929688 -5.300781 18.71875 -5.941406 18.5 -6.546875 C 18.5 -6.503906 18.503906 -6.460938 18.515625 -6.421875 C 18.523438 -6.390625 18.53125 -6.351562 18.53125 -6.3125 C 18.53125 -5.96875 18.425781 -5.710938 18.21875 -5.546875 Z M 17.734375 -8.609375 C 17.773438 -8.609375 17.835938 -8.625 17.921875 -8.65625 C 18.003906 -8.6875 18.066406 -8.703125 18.109375 -8.703125 C 17.398438 -10.484375 16.695312 -12.210938 16 -13.890625 C 15.300781 -15.566406 14.535156 -17.179688 13.703125 -18.734375 L 13.5 -18.53125 L 13.984375 -17.671875 C 14.742188 -16.285156 15.421875 -14.863281 16.015625 -13.40625 C 16.617188 -11.945312 17.191406 -10.441406 17.734375 -8.890625 C 17.109375 -10.566406 16.4375 -12.238281 15.71875 -13.90625 C 15 -15.570312 14.226562 -17.082031 13.40625 -18.4375 L 13.28125 -18.375 C 12.550781 -17.625 11.867188 -16.722656 11.234375 -15.671875 C 10.597656 -14.617188 10 -13.539062 9.4375 -12.4375 L 8.609375 -10.40625 L 9.15625 -10.28125 C 9.476562 -10.195312 9.796875 -10.101562 10.109375 -10 C 10.421875 -9.90625 10.691406 -9.804688 10.921875 -9.703125 C 11.398438 -9.460938 12.023438 -9.28125 12.796875 -9.15625 C 13.566406 -9.03125 14.320312 -8.90625 15.0625 -8.78125 C 15.8125 -8.664062 16.457031 -8.535156 17 -8.390625 C 17.550781 -8.253906 17.828125 -8.054688 17.828125 -7.796875 L 13.890625 -8.25 C 14.128906 -8.207031 14.421875 -8.160156 14.765625 -8.109375 C 15.109375 -8.054688 15.457031 -7.992188 15.8125 -7.921875 C 16.164062 -7.859375 16.515625 -7.800781 16.859375 -7.75 C 17.203125 -7.695312 17.492188 -7.648438 17.734375 -7.609375 C 17.734375 -7.546875 17.726562 -7.484375 17.71875 -7.421875 C 17.707031 -7.367188 17.703125 -7.320312 17.703125 -7.28125 C 17.703125 -7.238281 17.726562 -7.210938 17.78125 -7.203125 C 17.832031 -7.191406 17.894531 -7.179688 17.96875 -7.171875 C 18.039062 -7.160156 18.113281 -7.132812 18.1875 -7.09375 C 18.25 -7.070312 18.3125 -7.003906 18.375 -6.890625 Z M 10.734375 -15.5 C 10.773438 -15.5 10.789062 -15.472656 10.78125 -15.421875 C 10.769531 -15.367188 10.773438 -15.34375 10.796875 -15.34375 C 10.835938 -15.34375 10.960938 -15.492188 11.171875 -15.796875 C 11.390625 -16.097656 11.640625 -16.441406 11.921875 -16.828125 C 12.203125 -17.210938 12.472656 -17.578125 12.734375 -17.921875 C 12.992188 -18.265625 13.175781 -18.488281 13.28125 -18.59375 L 13.125 -18.828125 C 12.664062 -18.398438 12.242188 -17.894531 11.859375 -17.3125 C 11.472656 -16.726562 11.097656 -16.125 10.734375 -15.5 Z M 13.984375 -18.984375 C 14.671875 -17.828125 15.304688 -16.613281 15.890625 -15.34375 C 16.453125 -14.09375 16.976562 -12.847656 17.46875 -11.609375 C 17.0625 -12.847656 16.566406 -14.09375 15.984375 -15.34375 C 15.378906 -16.613281 14.722656 -17.828125 14.015625 -18.984375 Z M 18.921875 -14.15625 C 19.585938 -12.4375 20.242188 -10.679688 20.890625 -8.890625 C 20.285156 -10.628906 19.648438 -12.347656 18.984375 -14.046875 C 18.359375 -15.722656 17.640625 -17.410156 16.828125 -19.109375 C 17.597656 -17.484375 18.296875 -15.832031 18.921875 -14.15625 Z M 14.1875 -19.6875 C 14.46875 -19.625 14.660156 -19.5625 14.765625 -19.5 C 14.867188 -19.4375 14.941406 -19.40625 14.984375 -19.40625 L 15.015625 -19.5 C 15.035156 -19.5 14.992188 -19.507812 14.890625 -19.53125 C 14.785156 -19.550781 14.703125 -19.570312 14.640625 -19.59375 L 14.703125 -19.734375 L 14.3125 -19.859375 Z M 12.609375 -20.015625 L 12.859375 -19.34375 L 12.828125 -20.015625 C 12.785156 -20.015625 12.738281 -20.023438 12.6875 -20.046875 C 12.632812 -20.066406 12.585938 -20.078125 12.546875 -20.078125 Z M 13.4375 -19.078125 L 13.21875 -18.921875 L 13.40625 -18.65625 L 13.609375 -18.859375 Z M 13.890625 -19.140625 L 13.921875 -19.140625 L 13.765625 -19.375 L 13.765625 -19.34375 Z M 13.890625 -19.140625" transform="translate(9.91 36.576)"/></g></g></g><g fill="#FFF"><g><g><path d="M 5.3125 1.1875 C 5.144531 1.082031 5.039062 0.835938 5 0.453125 C 4.957031 0.0664062 4.9375 -0.40625 4.9375 -0.96875 L 4.9375 -1.734375 L 4.640625 -1.734375 C 4.617188 -1.609375 4.570312 -1.304688 4.5 -0.828125 C 4.425781 -0.359375 4.328125 0.132812 4.203125 0.65625 C 4.085938 1.1875 3.945312 1.65625 3.78125 2.0625 C 3.625 2.46875 3.445312 2.671875 3.25 2.671875 C 3.082031 2.671875 2.941406 2.445312 2.828125 2 C 2.722656 1.550781 2.648438 1.03125 2.609375 0.4375 C 2.566406 -0.15625 2.539062 -0.742188 2.53125 -1.328125 C 2.519531 -1.921875 2.515625 -2.359375 2.515625 -2.640625 C 2.515625 -4.128906 2.535156 -5.597656 2.578125 -7.046875 C 2.617188 -8.492188 2.640625 -9.945312 2.640625 -11.40625 C 2.640625 -12.875 2.519531 -14.332031 2.28125 -15.78125 C 2.050781 -17.226562 1.9375 -18.660156 1.9375 -20.078125 C 2.238281 -20.460938 2.519531 -20.859375 2.78125 -21.265625 C 3.050781 -21.679688 3.316406 -22.101562 3.578125 -22.53125 C 4.347656 -22.726562 5.148438 -22.910156 5.984375 -23.078125 C 6.828125 -23.253906 7.660156 -23.34375 8.484375 -23.34375 C 10.734375 -23.34375 12.660156 -22.992188 14.265625 -22.296875 C 15.867188 -21.597656 17.171875 -20.609375 18.171875 -19.328125 C 19.179688 -18.046875 19.921875 -16.519531 20.390625 -14.75 C 20.867188 -12.976562 21.109375 -11.023438 21.109375 -8.890625 C 21.109375 -5.453125 20.160156 -2.898438 18.265625 -1.234375 C 16.378906 0.421875 13.738281 1.25 10.34375 1.25 C 10.21875 1.25 10.015625 1.234375 9.734375 1.203125 C 9.453125 1.171875 9.257812 1.09375 9.15625 0.96875 C 9.757812 0.882812 10.453125 0.78125 11.234375 0.65625 C 12.015625 0.539062 12.800781 0.394531 13.59375 0.21875 C 14.394531 0.0507812 15.15625 -0.164062 15.875 -0.4375 C 16.59375 -0.707031 17.191406 -1.046875 17.671875 -1.453125 C 17.023438 -1.023438 16.363281 -0.6875 15.6875 -0.4375 C 15.007812 -0.1875 14.320312 0 13.625 0.125 C 12.925781 0.257812 12.207031 0.359375 11.46875 0.421875 C 10.738281 0.484375 10.007812 0.554688 9.28125 0.640625 L 9.375 0.296875 L 9.28125 0.03125 C 8.875 0.09375 8.503906 0.15625 8.171875 0.21875 C 7.835938 0.289062 7.488281 0.328125 7.125 0.328125 C 6.757812 0.328125 6.40625 0.28125 6.0625 0.1875 L 6.03125 1.125 Z M 7.609375 -1.546875 C 9.085938 -1.546875 10.46875 -1.585938 11.75 -1.671875 C 13.03125 -1.765625 14.140625 -2.046875 15.078125 -2.515625 C 16.023438 -2.984375 16.769531 -3.707031 17.3125 -4.6875 C 17.863281 -5.664062 18.140625 -7.046875 18.140625 -8.828125 C 18.140625 -9.710938 18.082031 -10.644531 17.96875 -11.625 C 17.851562 -12.601562 17.640625 -13.554688 17.328125 -14.484375 C 17.015625 -15.421875 16.585938 -16.273438 16.046875 -17.046875 C 15.554688 -17.773438 14.9375 -18.378906 14.1875 -18.859375 C 14.914062 -18.359375 15.515625 -17.742188 15.984375 -17.015625 C 16.523438 -16.222656 16.941406 -15.363281 17.234375 -14.4375 C 17.523438 -13.519531 17.726562 -12.570312 17.84375 -11.59375 C 17.957031 -10.613281 18.015625 -9.679688 18.015625 -8.796875 C 18.015625 -7.617188 17.90625 -6.632812 17.6875 -5.84375 C 17.476562 -5.0625 17.179688 -4.425781 16.796875 -3.9375 C 16.410156 -3.457031 15.929688 -3.085938 15.359375 -2.828125 C 14.785156 -2.578125 14.148438 -2.390625 13.453125 -2.265625 C 12.753906 -2.148438 11.984375 -2.066406 11.140625 -2.015625 C 10.304688 -1.960938 9.421875 -1.90625 8.484375 -1.84375 C 9.234375 -2.164062 10.039062 -2.378906 10.90625 -2.484375 C 11.78125 -2.585938 12.617188 -2.722656 13.421875 -2.890625 C 14.234375 -3.066406 14.957031 -3.363281 15.59375 -3.78125 C 16.238281 -4.207031 16.722656 -4.898438 17.046875 -5.859375 L 17.4375 -6 C 17.519531 -6.425781 17.570312 -6.804688 17.59375 -7.140625 C 17.613281 -7.472656 17.625 -7.851562 17.625 -8.28125 C 17.625 -9.613281 17.515625 -10.953125 17.296875 -12.296875 C 17.085938 -13.640625 16.691406 -14.851562 16.109375 -15.9375 C 15.535156 -17.019531 14.734375 -17.898438 13.703125 -18.578125 C 12.671875 -19.253906 11.347656 -19.59375 9.734375 -19.59375 C 9.128906 -19.59375 8.53125 -19.554688 7.9375 -19.484375 C 7.351562 -19.410156 6.769531 -19.304688 6.1875 -19.171875 C 6.226562 -19.148438 6.25 -19.117188 6.25 -19.078125 C 6.25 -19.015625 6.238281 -18.984375 6.21875 -18.984375 C 7.351562 -19.222656 8.453125 -19.34375 9.515625 -19.34375 C 10.816406 -19.34375 11.953125 -19.109375 12.921875 -18.640625 C 13.890625 -18.179688 14.691406 -17.546875 15.328125 -16.734375 C 15.960938 -15.929688 16.4375 -14.992188 16.75 -13.921875 C 17.0625 -12.847656 17.226562 -11.695312 17.25 -10.46875 C 17.070312 -11.71875 16.832031 -12.875 16.53125 -13.9375 C 16.226562 -15 15.785156 -15.914062 15.203125 -16.6875 C 14.628906 -17.46875 13.878906 -18.078125 12.953125 -18.515625 C 12.035156 -18.953125 10.863281 -19.171875 9.4375 -19.171875 C 8.90625 -19.171875 8.367188 -19.160156 7.828125 -19.140625 C 7.296875 -19.117188 6.769531 -19.023438 6.25 -18.859375 C 6.363281 -17.523438 6.460938 -16.203125 6.546875 -14.890625 C 6.628906 -13.578125 6.671875 -12.253906 6.671875 -10.921875 C 6.671875 -9.160156 6.597656 -7.425781 6.453125 -5.71875 C 6.316406 -4.007812 6.195312 -2.285156 6.09375 -0.546875 C 6.3125 -0.765625 6.554688 -0.941406 6.828125 -1.078125 C 7.109375 -1.222656 7.367188 -1.378906 7.609375 -1.546875 Z M 20.46875 -8.734375 C 20.46875 -9.785156 20.394531 -10.847656 20.25 -11.921875 C 20.113281 -12.992188 19.894531 -14.035156 19.59375 -15.046875 C 19.894531 -13.953125 20.101562 -12.859375 20.21875 -11.765625 C 20.34375 -10.671875 20.40625 -9.566406 20.40625 -8.453125 C 20.40625 -7.890625 20.375 -7.316406 20.3125 -6.734375 C 20.289062 -6.671875 20.28125 -6.609375 20.28125 -6.546875 C 20.40625 -7.253906 20.46875 -7.984375 20.46875 -8.734375 Z M 17.34375 -8.609375 C 17.34375 -8.285156 17.320312 -7.972656 17.28125 -7.671875 C 17.300781 -7.796875 17.3125 -7.925781 17.3125 -8.0625 L 17.3125 -9.125 C 17.3125 -9.101562 17.3125 -9.082031 17.3125 -9.0625 C 17.332031 -8.925781 17.34375 -8.773438 17.34375 -8.609375 Z M 17.3125 -9.125 C 17.3125 -9.25 17.300781 -9.367188 17.28125 -9.484375 C 17.300781 -9.347656 17.3125 -9.226562 17.3125 -9.125 Z M 19.953125 -5.0625 C 19.992188 -5.1875 20.023438 -5.316406 20.046875 -5.453125 C 20.023438 -5.316406 19.992188 -5.1875 19.953125 -5.0625 Z M 19.953125 -5.0625" transform="translate(42.559 36.576)"/></g></g></g><g fill="#FFF"><g><g><path d="M 14.5625 -10.46875 C 13.726562 -10.769531 12.859375 -10.96875 11.953125 -11.0625 C 11.097656 -11.164062 10.21875 -11.257812 9.3125 -11.34375 C 10.132812 -11.21875 10.972656 -11.097656 11.828125 -10.984375 C 12.734375 -10.878906 13.582031 -10.644531 14.375 -10.28125 C 14.289062 -10.195312 14.203125 -10.117188 14.109375 -10.046875 C 14.023438 -9.984375 13.941406 -9.953125 13.859375 -9.953125 C 13.554688 -9.953125 13.265625 -9.988281 12.984375 -10.0625 C 12.710938 -10.144531 12.414062 -10.1875 12.09375 -10.1875 L 12.09375 -10.578125 C 11.976562 -10.554688 11.828125 -10.546875 11.640625 -10.546875 C 11.097656 -10.546875 10.566406 -10.617188 10.046875 -10.765625 C 9.535156 -10.910156 9.015625 -10.984375 8.484375 -10.984375 C 8.203125 -10.984375 7.929688 -10.953125 7.671875 -10.890625 L 7.671875 -10.765625 C 8.359375 -10.722656 9.0625 -10.648438 9.78125 -10.546875 C 10.5 -10.453125 11.234375 -10.332031 11.984375 -10.1875 C 11.296875 -10.289062 10.5625 -10.382812 9.78125 -10.46875 C 9 -10.5625 8.265625 -10.609375 7.578125 -10.609375 C 7.296875 -10.609375 7.03125 -10.601562 6.78125 -10.59375 C 6.539062 -10.582031 6.300781 -10.566406 6.0625 -10.546875 C 6.0625 -10.085938 6.070312 -9.554688 6.09375 -8.953125 C 6.113281 -8.359375 6.15625 -7.773438 6.21875 -7.203125 C 6.28125 -6.628906 6.351562 -6.128906 6.4375 -5.703125 C 6.53125 -5.273438 6.640625 -5 6.765625 -4.875 L 7.0625 -4.28125 C 7.320312 -3.488281 8.179688 -3.09375 9.640625 -3.09375 C 9.960938 -3.09375 10.347656 -3.132812 10.796875 -3.21875 C 11.242188 -3.3125 11.695312 -3.414062 12.15625 -3.53125 C 12.625 -3.644531 13.066406 -3.742188 13.484375 -3.828125 C 13.910156 -3.921875 14.269531 -3.96875 14.5625 -3.96875 C 14.863281 -3.96875 15.035156 -3.921875 15.078125 -3.828125 C 15.128906 -3.742188 15.15625 -3.628906 15.15625 -3.484375 C 14.25 -3.367188 13.378906 -3.207031 12.546875 -3 C 11.804688 -2.800781 11.09375 -2.648438 10.40625 -2.546875 C 11.09375 -2.648438 11.789062 -2.78125 12.5 -2.9375 C 13.34375 -3.125 14.191406 -3.273438 15.046875 -3.390625 C 15.003906 -3.253906 14.984375 -3.164062 14.984375 -3.125 C 14.984375 -3 15.039062 -2.890625 15.15625 -2.796875 L 15.59375 -2.875 C 15.726562 -2.894531 15.859375 -2.910156 15.984375 -2.921875 C 16.117188 -2.929688 16.238281 -2.957031 16.34375 -3 C 16.726562 -2.894531 17 -2.773438 17.15625 -2.640625 C 17.320312 -2.515625 17.40625 -2.375 17.40625 -2.21875 C 17.40625 -1.945312 17.269531 -1.753906 17 -1.640625 C 16.726562 -1.535156 16.476562 -1.363281 16.25 -1.125 L 16.125 -1.125 C 15.5 -1.125 14.894531 -1.078125 14.3125 -0.984375 C 13.726562 -0.890625 13.148438 -0.785156 12.578125 -0.671875 C 12.015625 -0.566406 11.4375 -0.460938 10.84375 -0.359375 C 10.25 -0.265625 9.644531 -0.21875 9.03125 -0.21875 L 8.375 -0.21875 C 8.789062 -0.175781 9.234375 -0.15625 9.703125 -0.15625 C 10.304688 -0.15625 10.867188 -0.1875 11.390625 -0.25 C 11.921875 -0.320312 12.429688 -0.398438 12.921875 -0.484375 C 13.421875 -0.566406 13.898438 -0.640625 14.359375 -0.703125 C 14.816406 -0.773438 15.285156 -0.8125 15.765625 -0.8125 C 15.421875 -0.632812 15 -0.460938 14.5 -0.296875 C 14.007812 -0.140625 13.460938 -0.00390625 12.859375 0.109375 C 12.253906 0.234375 11.628906 0.332031 10.984375 0.40625 C 10.347656 0.476562 9.71875 0.515625 9.09375 0.515625 C 8.664062 0.515625 8.242188 0.492188 7.828125 0.453125 C 7.421875 0.410156 6.984375 0.269531 6.515625 0.03125 L 6.484375 -0.328125 C 6.179688 -0.429688 5.863281 -0.628906 5.53125 -0.921875 C 5.195312 -1.210938 4.890625 -1.519531 4.609375 -1.84375 C 4.328125 -2.164062 4.085938 -2.460938 3.890625 -2.734375 C 3.703125 -3.015625 3.609375 -3.195312 3.609375 -3.28125 L 3.515625 -3.578125 C 3.316406 -3.984375 3.160156 -4.429688 3.046875 -4.921875 C 2.929688 -5.421875 2.835938 -5.921875 2.765625 -6.421875 C 2.703125 -6.929688 2.648438 -7.429688 2.609375 -7.921875 C 2.566406 -8.421875 2.535156 -8.882812 2.515625 -9.3125 C 2.472656 -10.019531 2.441406 -10.734375 2.421875 -11.453125 C 2.398438 -12.179688 2.390625 -12.910156 2.390625 -13.640625 C 2.390625 -14.367188 2.394531 -15.101562 2.40625 -15.84375 C 2.414062 -16.582031 2.421875 -17.328125 2.421875 -18.078125 L 2.328125 -18.078125 C 2.210938 -17.265625 2.148438 -16.484375 2.140625 -15.734375 C 2.128906 -14.984375 2.125 -14.226562 2.125 -13.46875 L 2.125 -12.21875 C 2.125 -10.707031 2.203125 -9.132812 2.359375 -7.5 C 2.523438 -5.875 2.941406 -4.285156 3.609375 -2.734375 C 3.117188 -3.578125 2.804688 -4.410156 2.671875 -5.234375 C 2.546875 -6.066406 2.429688 -6.835938 2.328125 -7.546875 C 2.191406 -8.460938 2.097656 -9.347656 2.046875 -10.203125 C 1.992188 -11.066406 1.96875 -11.953125 1.96875 -12.859375 L 1.96875 -13.53125 C 1.96875 -14.78125 2 -16.050781 2.0625 -17.34375 C 2.125 -18.632812 2.316406 -20 2.640625 -21.4375 C 2.515625 -21.4375 2.453125 -21.5 2.453125 -21.625 C 2.453125 -21.757812 2.519531 -21.941406 2.65625 -22.171875 C 2.800781 -22.410156 2.976562 -22.640625 3.1875 -22.859375 C 3.40625 -23.085938 3.644531 -23.28125 3.90625 -23.4375 C 4.175781 -23.601562 4.441406 -23.6875 4.703125 -23.6875 L 12.375 -23.6875 C 13.175781 -23.539062 13.957031 -23.414062 14.71875 -23.3125 C 15.476562 -23.21875 16.273438 -23.148438 17.109375 -23.109375 L 17.078125 -22.375 C 17.078125 -22.238281 17.019531 -22.132812 16.90625 -22.0625 C 16.789062 -21.988281 16.53125 -21.953125 16.125 -21.953125 C 15.988281 -21.953125 15.828125 -21.957031 15.640625 -21.96875 C 15.460938 -21.976562 15.265625 -21.992188 15.046875 -22.015625 L 15.046875 -21.71875 C 15.929688 -21.53125 16.625 -21.296875 17.125 -21.015625 C 17.632812 -20.734375 17.890625 -20.46875 17.890625 -20.21875 C 17.890625 -19.914062 17.601562 -19.726562 17.03125 -19.65625 C 16.46875 -19.59375 15.710938 -19.5625 14.765625 -19.5625 C 13.554688 -19.5625 12.269531 -19.566406 10.90625 -19.578125 C 9.539062 -19.585938 8.226562 -19.648438 6.96875 -19.765625 L 6.421875 -19.765625 C 6.304688 -18.941406 6.226562 -18.097656 6.1875 -17.234375 C 6.144531 -16.378906 6.113281 -15.503906 6.09375 -14.609375 C 6.4375 -14.609375 6.773438 -14.625 7.109375 -14.65625 C 7.441406 -14.6875 7.789062 -14.703125 8.15625 -14.703125 C 8.457031 -14.703125 8.804688 -14.671875 9.203125 -14.609375 C 9.597656 -14.554688 10.015625 -14.488281 10.453125 -14.40625 C 10.898438 -14.320312 11.34375 -14.21875 11.78125 -14.09375 C 12.21875 -13.976562 12.617188 -13.859375 12.984375 -13.734375 C 13.054688 -13.710938 13.132812 -13.703125 13.21875 -13.703125 L 13.765625 -13.703125 C 14.046875 -13.703125 14.234375 -13.65625 14.328125 -13.5625 C 14.421875 -13.476562 14.46875 -13.3125 14.46875 -13.0625 C 14.101562 -13.0625 13.757812 -13.082031 13.4375 -13.125 C 13.113281 -13.164062 12.800781 -13.207031 12.5 -13.25 C 12.800781 -13.144531 13.113281 -13.0625 13.4375 -13 C 13.757812 -12.945312 14.101562 -12.898438 14.46875 -12.859375 C 14.425781 -12.753906 14.398438 -12.65625 14.390625 -12.5625 C 14.378906 -12.476562 14.375 -12.40625 14.375 -12.34375 C 14.59375 -12.300781 14.738281 -12.195312 14.8125 -12.03125 C 14.882812 -11.875 14.921875 -11.695312 14.921875 -11.5 C 14.921875 -11.226562 14.859375 -11.007812 14.734375 -10.84375 C 14.617188 -10.6875 14.5625 -10.5625 14.5625 -10.46875 Z M 3.21875 -6.828125 C 3.3125 -6.316406 3.414062 -5.765625 3.53125 -5.171875 C 3.644531 -4.578125 3.828125 -3.992188 4.078125 -3.421875 C 4.328125 -2.859375 4.664062 -2.332031 5.09375 -1.84375 C 5.4375 -1.425781 5.890625 -1.082031 6.453125 -0.8125 C 5.804688 -1.15625 5.28125 -1.625 4.875 -2.21875 C 4.394531 -2.945312 4.019531 -3.765625 3.75 -4.671875 C 3.488281 -5.578125 3.289062 -6.535156 3.15625 -7.546875 C 3.050781 -8.554688 2.96875 -9.519531 2.90625 -10.4375 C 2.925781 -9.863281 2.957031 -9.273438 3 -8.671875 C 3.039062 -8.066406 3.113281 -7.453125 3.21875 -6.828125 Z M 11.125 -13.40625 C 11.488281 -13.34375 11.875 -13.289062 12.28125 -13.25 C 11.894531 -13.351562 11.53125 -13.429688 11.1875 -13.484375 C 10.84375 -13.546875 10.5 -13.617188 10.15625 -13.703125 C 10.4375 -13.566406 10.757812 -13.46875 11.125 -13.40625 Z M 5.828125 -0.1875 C 5.554688 -0.320312 5.3125 -0.472656 5.09375 -0.640625 C 4.945312 -0.773438 4.804688 -0.90625 4.671875 -1.03125 C 4.804688 -0.90625 4.957031 -0.785156 5.125 -0.671875 C 5.363281 -0.503906 5.597656 -0.34375 5.828125 -0.1875 Z M 6.796875 -0.640625 L 6.515625 -0.78125 Z M 6.796875 -0.640625" transform="translate(72.661 36.576)"/></g></g></g><g fill="#FFF"><g><g><path d="M 2.125 -9.3125 C 2.1875 -7.8125 2.253906 -6.304688 2.328125 -4.796875 C 2.410156 -3.296875 2.472656 -1.796875 2.515625 -0.296875 L 2.515625 -0.125 L 2.421875 -0.21875 L 2.421875 -0.453125 C 2.304688 -2.390625 2.203125 -4.296875 2.109375 -6.171875 C 2.015625 -8.054688 1.96875 -9.960938 1.96875 -11.890625 L 1.96875 -15.53125 C 1.96875 -16.113281 1.972656 -16.6875 1.984375 -17.25 C 1.992188 -17.820312 2.007812 -18.398438 2.03125 -18.984375 C 2.050781 -19.648438 2.101562 -20.300781 2.1875 -20.9375 C 2.28125 -21.570312 2.328125 -22.234375 2.328125 -22.921875 L 2.453125 -22.921875 C 2.597656 -22.921875 2.722656 -22.929688 2.828125 -22.953125 C 2.941406 -22.972656 3.03125 -22.984375 3.09375 -22.984375 C 3.3125 -22.984375 3.441406 -22.84375 3.484375 -22.5625 C 3.523438 -22.28125 3.546875 -22.066406 3.546875 -21.921875 L 3.515625 -21.25 L 3.90625 -21.25 C 3.925781 -21.375 3.960938 -21.582031 4.015625 -21.875 C 4.066406 -22.164062 4.144531 -22.457031 4.25 -22.75 C 4.363281 -23.050781 4.488281 -23.316406 4.625 -23.546875 C 4.757812 -23.773438 4.925781 -23.890625 5.125 -23.890625 C 5.34375 -23.890625 5.507812 -23.691406 5.625 -23.296875 C 5.738281 -22.910156 5.828125 -22.453125 5.890625 -21.921875 C 5.960938 -21.398438 6.003906 -20.863281 6.015625 -20.3125 C 6.023438 -19.769531 6.03125 -19.335938 6.03125 -19.015625 L 6.03125 -18.625 C 6.03125 -16.15625 6.050781 -13.6875 6.09375 -11.21875 C 6.132812 -8.75 6.15625 -6.273438 6.15625 -3.796875 C 6.15625 -3.609375 6.148438 -3.410156 6.140625 -3.203125 C 6.128906 -3.003906 6.125 -2.804688 6.125 -2.609375 C 6.125 -2.503906 6.128906 -2.40625 6.140625 -2.3125 C 6.148438 -2.226562 6.15625 -2.132812 6.15625 -2.03125 L 6.484375 -2.03125 C 6.671875 -2.03125 6.859375 -2.023438 7.046875 -2.015625 C 7.242188 -2.003906 7.441406 -2 7.640625 -2 C 8.992188 -2 10.332031 -2.066406 11.65625 -2.203125 C 12.976562 -2.347656 14.316406 -2.421875 15.671875 -2.421875 L 15.796875 -2.421875 C 16.015625 -2.421875 16.269531 -2.390625 16.5625 -2.328125 C 16.863281 -2.273438 17.015625 -2.125 17.015625 -1.875 L 17.015625 -1.8125 C 15.878906 -1.8125 14.765625 -1.769531 13.671875 -1.6875 C 12.578125 -1.613281 11.457031 -1.523438 10.3125 -1.421875 C 11.15625 -1.460938 11.988281 -1.515625 12.8125 -1.578125 C 13.632812 -1.640625 14.46875 -1.671875 15.3125 -1.671875 C 15.59375 -1.671875 15.859375 -1.664062 16.109375 -1.65625 C 16.367188 -1.644531 16.640625 -1.628906 16.921875 -1.609375 L 16.796875 -1.21875 C 16.921875 -1.195312 17.085938 -1.171875 17.296875 -1.140625 C 17.515625 -1.109375 17.726562 -1.050781 17.9375 -0.96875 C 18.144531 -0.882812 18.320312 -0.78125 18.46875 -0.65625 C 18.625 -0.539062 18.703125 -0.394531 18.703125 -0.21875 C 18.703125 0.0703125 18.5625 0.273438 18.28125 0.390625 C 18 0.515625 17.738281 0.628906 17.5 0.734375 C 17.175781 0.628906 16.835938 0.570312 16.484375 0.5625 C 16.128906 0.550781 15.78125 0.546875 15.4375 0.546875 C 14.6875 0.546875 13.945312 0.578125 13.21875 0.640625 C 12.53125 0.703125 11.832031 0.769531 11.125 0.84375 C 11.632812 0.820312 12.128906 0.800781 12.609375 0.78125 C 13.140625 0.75 13.675781 0.734375 14.21875 0.734375 C 14.6875 0.734375 15.148438 0.742188 15.609375 0.765625 C 16.078125 0.796875 16.546875 0.851562 17.015625 0.9375 C 16.628906 1.101562 16.148438 1.226562 15.578125 1.3125 C 15.015625 1.40625 14.425781 1.472656 13.8125 1.515625 C 13.195312 1.554688 12.585938 1.582031 11.984375 1.59375 C 11.390625 1.601562 10.863281 1.617188 10.40625 1.640625 L 10.125 1.328125 C 9.644531 1.429688 9.171875 1.5 8.703125 1.53125 C 8.234375 1.5625 7.75 1.578125 7.25 1.578125 C 6.738281 1.578125 6.222656 1.554688 5.703125 1.515625 C 5.191406 1.472656 4.6875 1.410156 4.1875 1.328125 C 3.945312 1.066406 3.707031 0.8125 3.46875 0.5625 C 3.238281 0.3125 2.984375 0.0703125 2.703125 -0.15625 C 2.703125 -1.707031 2.664062 -3.234375 2.59375 -4.734375 C 2.519531 -6.242188 2.429688 -7.769531 2.328125 -9.3125 Z M 9 1 C 8.476562 1.019531 7.9375 1.03125 7.375 1.03125 C 6.707031 1.03125 6.082031 1.007812 5.5 0.96875 C 4.925781 0.925781 4.519531 0.847656 4.28125 0.734375 L 3.3125 -0.1875 L 3.03125 -4 L 3.03125 -3.28125 C 3.03125 -2.789062 3.0625 -2.296875 3.125 -1.796875 C 3.1875 -1.304688 3.21875 -0.816406 3.21875 -0.328125 L 3.21875 -0.125 C 3.394531 0.0390625 3.5625 0.207031 3.71875 0.375 C 3.882812 0.550781 4.039062 0.738281 4.1875 0.9375 L 4.421875 0.9375 C 4.890625 0.9375 5.351562 0.960938 5.8125 1.015625 C 6.28125 1.066406 6.75 1.09375 7.21875 1.09375 C 7.71875 1.09375 8.203125 1.070312 8.671875 1.03125 C 8.835938 1.03125 9.019531 1.019531 9.21875 1 Z M 6.25 -1.25 C 6.363281 -1.226562 6.476562 -1.210938 6.59375 -1.203125 C 6.707031 -1.191406 6.832031 -1.1875 6.96875 -1.1875 C 7.519531 -1.1875 8.078125 -1.195312 8.640625 -1.21875 C 9.203125 -1.238281 9.757812 -1.304688 10.3125 -1.421875 C 9.625 -1.378906 8.945312 -1.359375 8.28125 -1.359375 C 7.613281 -1.359375 6.9375 -1.347656 6.25 -1.328125 Z M 4.09375 1.546875 C 4.457031 1.648438 4.835938 1.71875 5.234375 1.75 C 5.628906 1.789062 6.046875 1.8125 6.484375 1.8125 C 6.734375 1.8125 6.976562 1.796875 7.21875 1.765625 C 7.4375 1.765625 7.640625 1.765625 7.828125 1.765625 C 7.703125 1.796875 7.550781 1.8125 7.375 1.8125 C 7.207031 1.832031 7.035156 1.84375 6.859375 1.84375 L 6.21875 1.84375 C 5.957031 1.84375 5.691406 1.828125 5.421875 1.796875 C 5.160156 1.773438 4.90625 1.753906 4.65625 1.734375 C 4.40625 1.710938 4.226562 1.679688 4.125 1.640625 C 4.0625 1.578125 3.953125 1.460938 3.796875 1.296875 C 3.648438 1.140625 3.488281 0.972656 3.3125 0.796875 C 3.144531 0.628906 2.988281 0.460938 2.84375 0.296875 C 2.707031 0.140625 2.628906 0.0390625 2.609375 0 Z M 5.421875 -1.390625 L 4.703125 -1.515625 C 4.835938 -1.472656 5.03125 -1.390625 5.28125 -1.265625 C 5.539062 -1.148438 5.734375 -1.082031 5.859375 -1.0625 L 5.765625 -1.421875 Z M 5.421875 -1.390625" transform="translate(98.896 36.576)"/></g></g></g><g fill="#FFF"><g><g><path d="M 17.921875 -5.25 L 17.734375 -5.34375 C 16.828125 -5.582031 15.867188 -5.734375 14.859375 -5.796875 C 13.847656 -5.867188 12.816406 -6.007812 11.765625 -6.21875 C 12.796875 -6.007812 13.804688 -5.84375 14.796875 -5.71875 C 15.785156 -5.601562 16.765625 -5.382812 17.734375 -5.0625 C 17.429688 -4.863281 17.109375 -4.765625 16.765625 -4.765625 C 16.359375 -4.804688 15.953125 -4.867188 15.546875 -4.953125 C 15.148438 -5.046875 14.726562 -5.113281 14.28125 -5.15625 C 14.28125 -5.28125 14.3125 -5.378906 14.375 -5.453125 C 13.75 -5.453125 13.128906 -5.515625 12.515625 -5.640625 C 11.910156 -5.765625 11.316406 -5.90625 10.734375 -6.0625 C 10.148438 -6.226562 9.582031 -6.378906 9.03125 -6.515625 C 8.488281 -6.660156 7.984375 -6.734375 7.515625 -6.734375 C 7.515625 -6.671875 7.503906 -6.640625 7.484375 -6.640625 C 8.035156 -6.535156 8.554688 -6.382812 9.046875 -6.1875 C 9.546875 -6 10.109375 -5.847656 10.734375 -5.734375 C 11.335938 -5.585938 11.921875 -5.476562 12.484375 -5.40625 C 13.054688 -5.34375 13.625 -5.257812 14.1875 -5.15625 C 13.28125 -5.238281 12.359375 -5.363281 11.421875 -5.53125 C 10.492188 -5.707031 9.578125 -5.90625 8.671875 -6.125 L 7.15625 -6.515625 C 6.613281 -5.140625 6.066406 -3.789062 5.515625 -2.46875 C 4.972656 -1.144531 4.445312 0.191406 3.9375 1.546875 C 3.894531 1.460938 3.820312 1.414062 3.71875 1.40625 C 3.625 1.394531 3.523438 1.390625 3.421875 1.390625 C 3.328125 1.390625 3.238281 1.359375 3.15625 1.296875 C 3.070312 1.242188 3.03125 1.132812 3.03125 0.96875 C 3.03125 0.789062 3.070312 0.546875 3.15625 0.234375 C 3.238281 -0.0664062 3.398438 -0.476562 3.640625 -1 C 3.597656 -1.039062 3.523438 -1.066406 3.421875 -1.078125 C 3.328125 -1.085938 3.257812 -1.09375 3.21875 -1.09375 C 2.789062 -0.1875 2.378906 0.503906 1.984375 0.984375 C 1.585938 1.460938 1.269531 1.703125 1.03125 1.703125 C 0.769531 1.703125 0.640625 1.457031 0.640625 0.96875 C 0.640625 0.5625 0.710938 0.0390625 0.859375 -0.59375 C 1.015625 -1.226562 1.203125 -1.910156 1.421875 -2.640625 C 1.648438 -3.367188 1.90625 -4.125 2.1875 -4.90625 C 2.46875 -5.695312 2.738281 -6.46875 3 -7.21875 C 2.757812 -7.375 2.503906 -7.484375 2.234375 -7.546875 C 1.972656 -7.609375 1.679688 -7.660156 1.359375 -7.703125 C 1.421875 -7.785156 1.453125 -7.890625 1.453125 -8.015625 C 1.453125 -8.148438 1.460938 -8.28125 1.484375 -8.40625 C 1.503906 -8.539062 1.546875 -8.648438 1.609375 -8.734375 C 1.671875 -8.816406 1.789062 -8.859375 1.96875 -8.859375 C 2.007812 -8.859375 2.140625 -8.835938 2.359375 -8.796875 L 2.359375 -9.09375 C 2.015625 -9.257812 1.75 -9.460938 1.5625 -9.703125 C 1.382812 -9.941406 1.296875 -10.175781 1.296875 -10.40625 C 1.296875 -10.925781 1.785156 -11.1875 2.765625 -11.1875 C 3.046875 -11.1875 3.332031 -11.171875 3.625 -11.140625 C 3.914062 -11.109375 4.210938 -11.070312 4.515625 -11.03125 L 6 -14.40625 C 6.320312 -15.132812 6.671875 -15.882812 7.046875 -16.65625 C 7.421875 -17.4375 7.863281 -18.203125 8.375 -18.953125 C 8.894531 -19.703125 9.484375 -20.414062 10.140625 -21.09375 C 10.796875 -21.769531 11.550781 -22.378906 12.40625 -22.921875 L 12.890625 -23.109375 C 13.492188 -22.960938 13.984375 -22.835938 14.359375 -22.734375 C 14.734375 -22.640625 15.039062 -22.570312 15.28125 -22.53125 C 15.488281 -22.445312 15.660156 -22.394531 15.796875 -22.375 L 15.765625 -22.375 L 15.796875 -22.28125 C 15.796875 -22.25 15.785156 -22.222656 15.765625 -22.203125 L 16.15625 -21.53125 C 17.550781 -19.1875 18.726562 -16.753906 19.6875 -14.234375 C 20.65625 -11.722656 21.484375 -9.253906 22.171875 -6.828125 C 22.347656 -6.296875 22.554688 -5.722656 22.796875 -5.109375 C 23.046875 -4.492188 23.285156 -3.910156 23.515625 -3.359375 C 23.742188 -2.816406 23.929688 -2.320312 24.078125 -1.875 C 24.234375 -1.4375 24.3125 -1.125 24.3125 -0.9375 C 24.3125 -0.78125 24.273438 -0.6875 24.203125 -0.65625 C 24.140625 -0.625 24.054688 -0.609375 23.953125 -0.609375 C 23.390625 -2.003906 22.863281 -3.378906 22.375 -4.734375 C 21.875 -6.066406 21.390625 -7.410156 20.921875 -8.765625 C 21.347656 -7.410156 21.800781 -6.066406 22.28125 -4.734375 C 22.769531 -3.378906 23.257812 -2.003906 23.75 -0.609375 L 23.53125 -0.609375 C 23.40625 -0.609375 23.316406 -0.546875 23.265625 -0.421875 C 23.316406 -0.378906 23.375 -0.265625 23.4375 -0.078125 C 23.5 0.0976562 23.5625 0.289062 23.625 0.5 C 23.6875 0.707031 23.738281 0.914062 23.78125 1.125 C 23.832031 1.34375 23.859375 1.503906 23.859375 1.609375 C 23.859375 2.085938 23.71875 2.328125 23.4375 2.328125 C 23.28125 2.328125 23.160156 2.289062 23.078125 2.21875 C 22.992188 2.15625 22.898438 2.070312 22.796875 1.96875 L 22.46875 1.640625 C 22.34375 1.515625 22.179688 1.382812 21.984375 1.25 L 18.890625 -7.640625 C 19.335938 -6.242188 19.78125 -4.847656 20.21875 -3.453125 C 20.664062 -2.054688 21.125 -0.679688 21.59375 0.671875 C 21.25 0.265625 20.929688 -0.222656 20.640625 -0.796875 C 20.359375 -1.378906 20.09375 -1.992188 19.84375 -2.640625 C 19.59375 -3.285156 19.359375 -3.945312 19.140625 -4.625 C 18.929688 -5.300781 18.71875 -5.941406 18.5 -6.546875 C 18.5 -6.503906 18.503906 -6.460938 18.515625 -6.421875 C 18.523438 -6.390625 18.53125 -6.351562 18.53125 -6.3125 C 18.53125 -5.96875 18.425781 -5.710938 18.21875 -5.546875 Z M 17.734375 -8.609375 C 17.773438 -8.609375 17.835938 -8.625 17.921875 -8.65625 C 18.003906 -8.6875 18.066406 -8.703125 18.109375 -8.703125 C 17.398438 -10.484375 16.695312 -12.210938 16 -13.890625 C 15.300781 -15.566406 14.535156 -17.179688 13.703125 -18.734375 L 13.5 -18.53125 L 13.984375 -17.671875 C 14.742188 -16.285156 15.421875 -14.863281 16.015625 -13.40625 C 16.617188 -11.945312 17.191406 -10.441406 17.734375 -8.890625 C 17.109375 -10.566406 16.4375 -12.238281 15.71875 -13.90625 C 15 -15.570312 14.226562 -17.082031 13.40625 -18.4375 L 13.28125 -18.375 C 12.550781 -17.625 11.867188 -16.722656 11.234375 -15.671875 C 10.597656 -14.617188 10 -13.539062 9.4375 -12.4375 L 8.609375 -10.40625 L 9.15625 -10.28125 C 9.476562 -10.195312 9.796875 -10.101562 10.109375 -10 C 10.421875 -9.90625 10.691406 -9.804688 10.921875 -9.703125 C 11.398438 -9.460938 12.023438 -9.28125 12.796875 -9.15625 C 13.566406 -9.03125 14.320312 -8.90625 15.0625 -8.78125 C 15.8125 -8.664062 16.457031 -8.535156 17 -8.390625 C 17.550781 -8.253906 17.828125 -8.054688 17.828125 -7.796875 L 13.890625 -8.25 C 14.128906 -8.207031 14.421875 -8.160156 14.765625 -8.109375 C 15.109375 -8.054688 15.457031 -7.992188 15.8125 -7.921875 C 16.164062 -7.859375 16.515625 -7.800781 16.859375 -7.75 C 17.203125 -7.695312 17.492188 -7.648438 17.734375 -7.609375 C 17.734375 -7.546875 17.726562 -7.484375 17.71875 -7.421875 C 17.707031 -7.367188 17.703125 -7.320312 17.703125 -7.28125 C 17.703125 -7.238281 17.726562 -7.210938 17.78125 -7.203125 C 17.832031 -7.191406 17.894531 -7.179688 17.96875 -7.171875 C 18.039062 -7.160156 18.113281 -7.132812 18.1875 -7.09375 C 18.25 -7.070312 18.3125 -7.003906 18.375 -6.890625 Z M 10.734375 -15.5 C 10.773438 -15.5 10.789062 -15.472656 10.78125 -15.421875 C 10.769531 -15.367188 10.773438 -15.34375 10.796875 -15.34375 C 10.835938 -15.34375 10.960938 -15.492188 11.171875 -15.796875 C 11.390625 -16.097656 11.640625 -16.441406 11.921875 -16.828125 C 12.203125 -17.210938 12.472656 -17.578125 12.734375 -17.921875 C 12.992188 -18.265625 13.175781 -18.488281 13.28125 -18.59375 L 13.125 -18.828125 C 12.664062 -18.398438 12.242188 -17.894531 11.859375 -17.3125 C 11.472656 -16.726562 11.097656 -16.125 10.734375 -15.5 Z M 13.984375 -18.984375 C 14.671875 -17.828125 15.304688 -16.613281 15.890625 -15.34375 C 16.453125 -14.09375 16.976562 -12.847656 17.46875 -11.609375 C 17.0625 -12.847656 16.566406 -14.09375 15.984375 -15.34375 C 15.378906 -16.613281 14.722656 -17.828125 14.015625 -18.984375 Z M 18.921875 -14.15625 C 19.585938 -12.4375 20.242188 -10.679688 20.890625 -8.890625 C 20.285156 -10.628906 19.648438 -12.347656 18.984375 -14.046875 C 18.359375 -15.722656 17.640625 -17.410156 16.828125 -19.109375 C 17.597656 -17.484375 18.296875 -15.832031 18.921875 -14.15625 Z M 14.1875 -19.6875 C 14.46875 -19.625 14.660156 -19.5625 14.765625 -19.5 C 14.867188 -19.4375 14.941406 -19.40625 14.984375 -19.40625 L 15.015625 -19.5 C 15.035156 -19.5 14.992188 -19.507812 14.890625 -19.53125 C 14.785156 -19.550781 14.703125 -19.570312 14.640625 -19.59375 L 14.703125 -19.734375 L 14.3125 -19.859375 Z M 12.609375 -20.015625 L 12.859375 -19.34375 L 12.828125 -20.015625 C 12.785156 -20.015625 12.738281 -20.023438 12.6875 -20.046875 C 12.632812 -20.066406 12.585938 -20.078125 12.546875 -20.078125 Z M 13.4375 -19.078125 L 13.21875 -18.921875 L 13.40625 -18.65625 L 13.609375 -18.859375 Z M 13.890625 -19.140625 L 13.921875 -19.140625 L 13.765625 -19.375 L 13.765625 -19.34375 Z M 13.890625 -19.140625" transform="translate(144.276 36.576)"/></g></g></g><g clip-path="url(#a)"><path fill="#FFF" d="M 132.9375 30.679688 C 132.886719 30.839844 132.890625 30.851562 133.023438 30.953125 C 132.972656 30.84375 133.015625 30.753906 132.9375 30.679688 Z M 133.117188 34.027344 C 133.097656 34.023438 133.078125 34.019531 133.058594 34.015625 C 133.023438 34.160156 132.992188 34.304688 132.957031 34.457031 C 133.128906 34.503906 133.097656 34.40625 133.117188 34.027344 Z M 127.136719 38.757812 C 127.527344 37.9375 127.5 38.125 127.867188 37.484375 C 130.222656 33.363281 129.078125 32.855469 129.023438 31.097656 C 129.003906 30.441406 128.5625 29.964844 129.035156 29.214844 C 129.613281 29.25 129.871094 29.355469 130.023438 28.914062 C 130.21875 29.015625 130.1875 29.105469 130.367188 28.988281 C 130.421875 28.953125 130.6875 28.742188 130.804688 28.800781 C 131.265625 29.042969 131.5 28.019531 132.394531 29.300781 C 132.457031 29.070312 132.511719 28.871094 132.574219 28.660156 C 132.953125 28.773438 133.289062 29.949219 133.242188 30.007812 C 132.984375 30.328125 134.753906 36.269531 131.386719 38.511719 C 131.082031 38.714844 130.824219 39.039062 130.710938 39.050781 C 130.351562 39.089844 130.328125 39.648438 130.15625 39.515625 C 130.011719 39.402344 130.46875 39.097656 130.597656 38.746094 C 130.371094 38.648438 130.488281 38.671875 130.054688 38.976562 C 128.9375 39.769531 129.191406 39.660156 129.066406 39.960938 C 128.8125 39.90625 128.707031 40.378906 128.414062 40.460938 C 128.515625 40.308594 129.171875 39.355469 129.21875 39.148438 C 128.90625 39.246094 128.582031 39.863281 128.375 40.03125 C 128.363281 40.023438 128.351562 40.015625 128.339844 40.007812 C 128.433594 39.769531 128.605469 39.636719 129.363281 38.585938 C 129.21875 38.515625 129.261719 38.582031 128.746094 39.089844 C 128.734375 39.078125 128.722656 39.066406 128.710938 39.054688 C 128.746094 38.980469 128.785156 38.90625 128.835938 38.804688 C 128.773438 38.84375 128.726562 38.871094 128.679688 38.898438 C 128.644531 38.867188 128.613281 38.839844 128.582031 38.8125 C 128.070312 39.28125 128.082031 39.296875 128.019531 39.242188 C 127.867188 39.113281 128.171875 39.035156 128.160156 38.730469 C 127.8125 39.226562 127.488281 39.6875 127.140625 40.179688 C 127.136719 39.882812 127.421875 39.648438 127.714844 39.054688 C 127.09375 39.644531 127.179688 39.667969 126.703125 40.375 C 126.6875 40.394531 126.65625 40.402344 126.605469 40.433594 C 126.617188 40.101562 127.453125 38.832031 127.566406 38.652344 C 127.402344 38.691406 127.265625 38.722656 127.132812 38.753906 L 127.136719 38.757812"/></g><g clip-path="url(#b)"><path fill="#FFF" d="M 128.367188 40.605469 C 128.332031 40.65625 128.292969 40.707031 128.253906 40.753906 C 128.242188 40.746094 128.230469 40.734375 128.21875 40.726562 C 128.234375 40.660156 128.285156 40.617188 128.367188 40.605469"/></g><g clip-path="url(#c)"><path fill="#FFF" d="M 129.039062 12.183594 C 129.269531 12.496094 129.457031 12.367188 129.546875 12.367188 C 129.707031 12.363281 129.671875 12.550781 129.824219 12.164062 C 129.828125 12.148438 129.847656 12.136719 129.863281 12.113281 C 130.03125 12.210938 129.984375 12.351562 130.214844 12.246094 C 130.394531 12.164062 130.488281 11.972656 130.621094 12.054688 C 130.761719 12.144531 130.863281 12.101562 130.964844 11.945312 C 131.03125 12.035156 131.089844 12.109375 131.164062 12.207031 C 131.605469 11.691406 131.734375 11.992188 132.066406 12.421875 C 131.765625 12.996094 132.132812 12.875 132.398438 14.945312 C 132.503906 15.761719 132.445312 15.988281 132.726562 16.042969 C 132.726562 16.453125 132.761719 16.589844 132.542969 16.492188 C 132.550781 16.480469 132.558594 16.46875 132.566406 16.453125 C 132.71875 17.003906 132.832031 18.105469 132.59375 19.527344 C 132.554688 19.769531 132.410156 19.570312 132.375 19.859375 C 132.351562 20.066406 132.476562 20.273438 132.242188 20.847656 C 131.652344 20.90625 131.800781 20.40625 131.515625 20.644531 C 131.160156 20.945312 130.910156 21.238281 130.464844 21.085938 C 130.25 21.015625 129.9375 21.203125 129.785156 20.839844 C 129.453125 20.042969 128.800781 20.460938 128.515625 17.125 C 128.21875 13.691406 128.605469 13.089844 129.039062 12.183594"/></g></svg>